<?xml version="1.0" standalone="no"?>
<!DOCTYPE svg PUBLIC "-//W3C//DTD SVG 20010904//EN"
 "http://www.w3.org/TR/2001/REC-SVG-20010904/DTD/svg10.dtd">
<svg version="1.0" xmlns="http://www.w3.org/2000/svg"
 width="240.000000pt" height="240.000000pt" viewBox="0 0 240.000000 240.000000"
 preserveAspectRatio="xMidYMid meet">
<metadata>
Created by potrace 1.11, written by Peter Selinger 2001-2013
</metadata>
<g transform="translate(0.000000,240.000000) scale(0.100000,-0.100000)"
fill="#000000" stroke="none">
<path d="M1120 2178 c-41 -84 -122 -252 -181 -374 l-107 -220 -138 -18 c-77
-10 -146 -19 -154 -21 -8 -1 -37 -6 -65 -9 -51 -8 -101 -15 -145 -21 -31 -4
-94 -13 -140 -19 -19 -3 -57 -8 -85 -11 -27 -3 -62 -8 -78 -11 l-27 -6 44 -41
c24 -23 135 -130 246 -237 111 -107 227 -218 257 -247 54 -50 56 -53 50 -95
-5 -45 -49 -290 -91 -518 -9 -47 -18 -103 -22 -125 -3 -22 -10 -58 -15 -80 -4
-22 -9 -46 -9 -53 0 -12 107 41 303 149 48 27 88 49 90 49 2 0 64 33 138 73
232 125 203 113 241 94 18 -9 71 -37 118 -62 47 -26 141 -76 210 -112 69 -36
130 -69 135 -73 6 -4 63 -35 129 -70 l118 -62 -5 29 c-3 15 -9 46 -12 68 -10
57 -13 75 -41 225 -13 74 -27 151 -30 170 -2 19 -9 55 -14 80 -5 25 -12 61
-15 80 -3 19 -7 46 -10 60 -3 14 -7 40 -10 59 -3 19 -8 38 -11 43 -3 4 24 36
59 71 83 81 435 418 500 480 27 26 48 47 46 47 -3 0 -70 9 -149 20 -80 11
-163 23 -185 26 -57 7 -84 11 -135 20 -25 4 -56 8 -70 9 -67 7 -137 16 -150
20 -8 2 -37 6 -65 10 -27 3 -57 8 -66 11 -9 2 -50 75 -91 162 -184 384 -282
582 -288 582 -3 0 -39 -69 -80 -152z m349 -782 c20 -3 54 -8 76 -11 23 -3 51
-7 62 -9 12 -3 48 -8 80 -12 32 -3 65 -7 73 -9 8 -1 57 -8 109 -15 l94 -13
-94 -90 c-52 -49 -138 -133 -192 -185 l-98 -96 7 -51 c3 -27 8 -53 9 -56 2 -3
13 -57 24 -120 11 -63 23 -130 26 -149 4 -19 8 -44 10 -55 1 -11 6 -37 10 -57
l7 -38 -48 26 c-67 36 -208 111 -273 146 -30 16 -76 41 -102 55 l-49 25 1 597
0 596 116 -237 116 -237 36 -5z"/>
</g>
</svg>
